<?xml version="1.0" encoding="utf-8"?>
<!-- Generator: Adobe Illustrator 16.0.0, SVG Export Plug-In . SVG Version: 6.00 Build 0)  -->
<!DOCTYPE svg PUBLIC "-//W3C//DTD SVG 1.1//EN" "http://www.w3.org/Graphics/SVG/1.1/DTD/svg11.dtd">
<svg version="1.1" id="Layer_1" xmlns="http://www.w3.org/2000/svg" xmlns:xlink="http://www.w3.org/1999/xlink" x="0px" y="0px"
	 width="798.4px" height="158.4px" viewBox="0 0 798.4 158.4" style="enable-background:new 0 0 798.4 158.4;" xml:space="preserve"
	>
<style type="text/css">
<![CDATA[
	.st0{fill:#FFFFFF;}
]]>
</style>
<g>
	<g>
		<g>
			<path class="st0" d="M267.1,115.1c-0.6,0-8.1,0-9.1,0c-0.9,0-1.5-0.9-1.5-1.5c0-0.6,0-22.7,0-22.7h-27.3c0,0-16.4,23.3-16.6,23.5
				c-0.2,0.2-0.3,0.4-0.5,0.5c-0.2,0.1-0.5,0.2-0.9,0.2c-0.3,0-10,0-10.7,0s-1.2-0.5-1.4-1c-0.2-0.5-0.1-1.1,0.2-1.5
				c0.2-0.4,51.6-73.4,52.9-75.2c1.5-2.1,4.7-4.9,9.5-3.8c5.2,1.3,6.9,5.7,6.9,9c0,2.8,0,70.3,0,71
				C268.6,114.3,267.8,115.1,267.1,115.1z M256.5,55.3c0,0,0-0.8-0.7-1.1c-0.8-0.3-1.3,0.5-1.3,0.5l-17,24.2h19.1V55.3z"/>
			<path class="st0" d="M623.2,47.6c0.8,0,8,0,8.9,0s1.6,0.7,1.6,1.6c0,0.9,0,3.6,0,3.6s0,40.8,0,41.7c0,1,1.5,1.7,2.2,0.6
				c0.7-1.1,32.3-46.5,32.5-46.7c0.1-0.2,0.3-0.4,0.5-0.5c0.2-0.1,0.5-0.2,0.9-0.2s10,0,10.7,0s1.2,0.5,1.4,1
				c0.2,0.5,0.1,1.1-0.2,1.5c-0.2,0.4-42.4,60.5-43.7,62.3c-1.5,2.1-4.7,4.9-9.4,3.8c-5.2-1.3-6.9-5.7-6.9-9c0-2.8,0-38.6,0-54.6
				c0-1.5,0-2.8,0-3.7C621.6,48.2,622.4,47.6,623.2,47.6z"/>
			<path class="st0" d="M321.1,116.7c-8.9,0-18.7-3.4-23.5-11.4h-0.2c0,0,0,29.8,0,30.4c0,0.8-0.7,1.6-1.5,1.6c-0.8,0-8.7,0-9.5,0
				c-0.8,0-1.5-0.8-1.5-1.6c0-0.8,0-76.7,0-77.4s0.6-1.6,1.6-1.6c0.7,0,3.8,0,4.3,0c1.8,0,5.3-0.2,9.4-3.4
				c2.9-2.3,10.6-7.1,20.2-7.1c20.6,0,34.7,15.9,34.7,36.1C354.9,101.4,340.3,116.7,321.1,116.7z M319.4,57.8
				c-12.9,0-22.3,11.1-22.3,23.7c0,12.9,9.4,23.8,22.7,23.8c13.2,0,22.6-10.7,22.6-23.5C342.4,69,332.3,57.8,319.4,57.8z"/>
			<path class="st0" d="M402.9,116.7c-8.9,0-18.7-3.4-23.5-11.4h-0.2c0,0,0,29.8,0,30.4c0,0.8-0.7,1.6-1.5,1.6c-0.8,0-8.7,0-9.5,0
				c-0.8,0-1.5-0.8-1.5-1.6c0-0.8,0-76.7,0-77.4s0.6-1.6,1.6-1.6c0.7,0,3.8,0,4.3,0c1.8,0,5.3-0.2,9.4-3.4
				c2.9-2.3,10.6-7.1,20.2-7.1c20.6,0,34.7,15.9,34.7,36.1C436.8,101.4,422.1,116.7,402.9,116.7z M401.3,57.8
				c-12.9,0-22.3,11.1-22.3,23.7c0,12.9,9.4,23.8,22.7,23.8c13.2,0,22.6-10.7,22.6-23.5C424.2,69,414.2,57.8,401.3,57.8z"/>
			<path class="st0" d="M539.1,81.5c-3.2,13.5-11.9,24.7-25.4,30.9c-6,2.8-12.8,4.3-19.4,4.3c-25.6,0-45.8-20.7-45.8-46.1
				c0-25.6,19.8-46.6,45.6-46.6c15.8,0,30.3,8.4,38.6,21.6c0,0,0,0.1,0.1,0.1c0.6,0.9-0.1,2.4-1.4,2.4c-0.4,0-11.2,0-11.7,0
				c-0.6,0-1.1-0.4-1.3-0.6C512,40.4,504.6,36,494.6,36c-18.8,0-33.1,16.3-33.1,34.7c0,18.1,14.7,34.2,33.2,34.2
				c13.7,0,24.8-8.4,30.2-20.7c0.2-0.5,0.1-0.8-0.1-1.1c-0.1-0.2-0.5-0.4-0.9-0.4c-0.4,0-37.4,0-38.4,0s-1.7-0.8-1.7-1.6
				c0-0.8,0-8.2,0-8.8c0-0.6,0.6-1.5,1.6-1.5c8,0,43.1,0,45,0c2.2,0,4.6,0.9,6.3,2.6C538.5,75,539.9,78,539.1,81.5z"/>
			<path class="st0" d="M741.6,87c-4.9,0-46.6,0-46.6,0c2.5,10.4,11,18.2,22,18.2c7.5,0,14.8-3.8,18.6-10.3c0,0,0-0.1,0-0.1
				c0.2-0.3,0.6-0.9,1.4-0.9c0.8,0,8.1,0,9.2,0c1.1,0,1.9,1.1,1.5,2.2c0,0,0,0.1-0.1,0.1c-5.6,12.4-17.4,20.4-31.2,20.4
				c-19.1,0-34-16.5-34-35.3c0-19.3,14.7-35.1,34.3-35.1c17.7,0,32,13.5,33.8,30.6c0,0.1,0,0.2,0,0.3C751.2,81.2,748.1,87,741.6,87z
				 M738,75.9c0,0,0-0.1,0-0.1c-1.5-10.2-11.1-18-21.4-18c-10.9,0-20.9,8.6-21.6,19.6c0,0,41.1,0,41.9,0
				C737.7,77.4,738.2,76.7,738,75.9z"/>
			<path class="st0" d="M796.9,57.9c-0.1,0-0.1,0-0.2,0c-4.6,0.4-9.9,2.6-13.6,6.6c-4.8,5.1-6.4,10.6-6.4,14c0,0,0,34.2,0,35
				c0,0.8-0.6,1.6-1.6,1.6c-0.8,0-8.5,0-9.4,0c-0.9,0-1.5-0.7-1.5-1.6c0-9,0-53.8,0-55c0-1.4,1.3-1.6,1.6-1.6c0.3,0,1.4,0,4,0
				c5.6,0,8.5-2.6,11.1-4.4c2.4-1.6,8.8-5.4,15.5-6c0.1,0,0,0,0.2,0c1-0.1,1.7,0.8,1.7,1.6s0,7.5,0,8.3
				C798.4,57.1,797.8,57.8,796.9,57.9z"/>
		</g>
		<path class="st0" d="M563.5,97.6c0,0,0-47.8,0-48.5c0-0.8-0.6-1.6-1.6-1.6c-1,0-8.4,0-9.4,0c-1,0-1.6,0.9-1.6,1.6
			c0,0.7,0,66.3,0,66.3l-0.5,0.7c0,0-12.6,17.8-13.3,18.8c-0.7,1-0.1,2.5,1.3,2.5c1.4,0,11.1,0,11.5,0s1-0.3,1.4-0.7
			c5.9-8.4,60.4-85.4,61.2-86.5c0.8-1.2-0.1-2.5-1.3-2.5c-1.2,0-10.8,0-11.5,0s-1.1,0.4-1.4,0.7c-0.3,0.4-33.8,47.7-33.8,47.7
			L563.5,97.6z"/>
	</g>
	<g>
		<path class="st0" d="M124.7,48.4c-4.6,0-9.1,0-12.7,0l0,0h0c-0.5,0-0.9,0-1.2,0c-0.1,0-0.2,0-0.3,0v0h-29c-1.2,0-2.2,1-2.2,2.2
			v23.8c0,1.2,1,2.2,2.2,2.2H112l0,0c0,0,24.1,0,24.8,0c0.8,0,1.3-0.5,1.6-1.1c0.3-0.6,8.8-21.5,11-26.8c0.1-0.3,0.3-0.6,0.4-0.9
			c0-0.1,0.1-0.2,0.1-0.2c-0.3,0.2-0.6,0.4-0.9,0.6c-0.4,0.1-0.7,0.2-1.1,0.2C146.2,48.4,135.2,48.4,124.7,48.4z"/>
		<path class="st0" d="M93.1,4.3c-1.8,1.8-9.7,9.7-12.6,12.6L110,46.4c11.4,0,35.4,0,37.9,0c0.2,0,0.4,0,0.5-0.1
			c0.1,0,0.2-0.1,0.2-0.1c0,0,0.1-0.1,0.1-0.2c0-0.1,0-0.1,0-0.3v0c0-0.3-0.1-0.7-0.5-1.2l-3.8-3.8l-0.7-0.7l0,0l-25.5-25.5
			c-0.1-0.1-0.2-0.2-0.4-0.3c-2.6-2.6-5.3-5.2-7.3-7.3c-2-1.9-3.9-3.2-5.7-4c-1.9-0.9-3.6-1.3-5.2-1.3c-1.4,0-2.7,0.3-3.8,0.8
			C94.7,3,93.8,3.6,93.1,4.3z"/>
		<path class="st0" d="M136.2,81.7c-0.2-0.1-0.5-0.3-0.9-0.3H81.4c-1.2,0-2.2,1-2.2,2.2v23.8c0,1.2,1,2.2,2.2,2.2h28.2
			c17.9-17.9,17.5-17.5,26.4-26.4c0.3-0.3,0.4-0.6,0.4-0.8c0-0.1,0-0.2-0.1-0.3C136.4,81.9,136.3,81.8,136.2,81.7z"/>
		<path class="st0" d="M65.4,153.9c1.8-1.8,9.6-9.6,12.5-12.5l-17.7-17.7l0.1-0.1L36.1,99.5l-1.4-1.4l0,0L16.9,80.3
			C14,83.2,6.2,91,4.3,92.9c-0.7,0.7-1.4,1.6-1.8,2.7c-0.5,1.1-0.8,2.4-0.8,3.8c0,1.5,0.4,3.3,1.3,5.2c0.8,1.7,2.1,3.6,3.9,5.5
			c2.3,2.3,5.4,5.4,8.8,8.8l-0.1,0.1c0,0,11,10.9,20.9,20.8c1.9,1.9,3,3,3,3l0,0c3.5,3.5,6.7,6.7,9,8.9c1.8,1.7,3.6,2.9,5.2,3.6
			c1.9,0.9,3.7,1.3,5.2,1.3c1.4,0,2.7-0.3,3.8-0.8C63.8,155.3,64.7,154.6,65.4,153.9z"/>
		<path class="st0" d="M15.5,78.9L15.5,78.9c11.7-11.7,45.2-45.1,63.6-63.4l0,0C82,12.6,89.9,4.8,91.7,2.9c0.9-0.9,2-1.7,3.3-2.2
			c0.6-0.3,1.3-0.5,2.1-0.7h-38c-3.2,0-5.9,1.5-7.5,3.1c0,0-10.4,10.5-21.6,21.7c-0.5,0.3-1,0.7-1.4,1.2C26.5,28,3.1,51.3,3.1,51.3
			C1.5,52.9,0,55.6,0,58.8v38.1c0.2-0.8,0.4-1.5,0.7-2.1c0.6-1.3,1.4-2.5,2.3-3.3C4.8,89.6,12.6,81.8,15.5,78.9z"/>
		<path class="st0" d="M150,110.6c-0.3-0.7-10.5-25.4-11.5-28c0,0,0,0,0,0.1c0,0,0,0.1,0,0.1c0,0,0,0,0,0c-0.1,0.7-0.5,1.3-1,1.8
			c-8.7,8.7-8.5,8.5-25,25h0.1c-10.1,10.1-23.5,23.5-33.3,33.2l0,0c-3,3-10.7,10.7-12.5,12.5c-0.9,0.9-2,1.7-3.3,2.3
			c-0.9,0.4-1.8,0.7-2.8,0.8h38.6c3.2,0,5.9-1.5,7.5-3.1c0,0,17.7-17.8,25.2-25.3l0.1,0.1c0,0,17.1-17.1,17.6-17.6
			C150.2,111.9,150.3,111.2,150,110.6z"/>
	</g>
</g>
</svg>
